<svg width="250" height="168" viewBox="0 0 250 168" fill="none" xmlns="http://www.w3.org/2000/svg">
<path d="M223.027 34.8501L206.57 35.0501L206.83 56.5101L223.29 56.7234L223.027 34.8501Z" fill="#EBEBEB"/>
<path d="M221.853 35.6301L207.453 35.8035L207.69 55.2635L222.093 55.5768L221.853 35.6301Z" fill="#FAFAFA"/>
<path d="M219.473 39.1934L209.917 38.9468L210.08 52.5501L219.633 52.4334L219.473 39.1934Z" fill="#E0E0E0"/>
<path d="M210.08 52.5501L219.55 45.4468L209.917 38.9468L210.08 52.5501Z" fill="#F5F5F5"/>
<path d="M47.3567 48.8469L23.6833 49.1336L24.0567 80.0069L47.74 80.3169L47.3567 48.8469Z" fill="#EBEBEB"/>
<path d="M45.67 49.9668L24.9534 50.2168L25.2934 78.2201L46.0167 78.6668L45.67 49.9668Z" fill="#FAFAFA"/>
<path d="M42.2467 55.0969L28.4933 54.7402L28.73 74.3102L42.4767 74.1436L42.2467 55.0969Z" fill="#E0E0E0"/>
<path d="M28.73 74.3102L42.3567 64.0902L28.4933 54.7402L28.73 74.3102Z" fill="#F5F5F5"/>
<path d="M66.3567 40.4402H57.49V59.4235H66.3567V40.4402Z" fill="#F5F5F5"/>
<path d="M77.6234 60.7468H66.7267V79.0868H77.6234V60.7468Z" fill="#F5F5F5"/>
<path d="M78.95 40.1101H89.2967V23.2735H89.6667V40.1101H99.24V22.9001H78.95V40.1101Z" fill="#F5F5F5"/>
<path d="M66.3567 60.7468H57.49V79.0868H66.3567V60.7468Z" fill="#F5F5F5"/>
<path d="M99.24 60.7468H89.6633V79.0868H99.24V60.7468Z" fill="#F5F5F5"/>
<path d="M77.6234 40.4402H66.7267V59.4235H77.6234V40.4402Z" fill="#F5F5F5"/>
<path d="M99.24 40.4402H89.6633V59.4235H99.24V40.4402Z" fill="#F5F5F5"/>
<path d="M66.3567 79.4167H57.49V95.9434H66.3567V79.4167Z" fill="#F5F5F5"/>
<path d="M66.36 40.1101V23.2735H66.7267V40.1101H77.6233V22.9001H57.49V40.1101H66.36Z" fill="#F5F5F5"/>
<path d="M77.6234 79.4167H66.7267V95.9434H77.6234V79.4167Z" fill="#F5F5F5"/>
<path d="M99.24 79.4167H89.6633V95.9434H99.24V79.4167Z" fill="#F5F5F5"/>
<path d="M89.2967 40.4402H78.95V59.4235H89.2967V40.4402Z" fill="#F5F5F5"/>
<path d="M89.2967 79.4167H78.95V95.9434H89.2967V79.4167Z" fill="#F5F5F5"/>
<path d="M89.2967 60.7468H78.95V79.0868H89.2967V60.7468Z" fill="#F5F5F5"/>
<path d="M161.75 40.4402H152.883V59.4235H161.75V40.4402Z" fill="#F5F5F5"/>
<path d="M173.017 60.7468H162.12V79.0868H173.017V60.7468Z" fill="#F5F5F5"/>
<path d="M174.343 40.1101H184.69V23.2735H185.057V40.1101H194.633V22.9001H174.343V40.1101Z" fill="#F5F5F5"/>
<path d="M161.75 60.7468H152.883V79.0868H161.75V60.7468Z" fill="#F5F5F5"/>
<path d="M194.633 60.7468H185.057V79.0868H194.633V60.7468Z" fill="#F5F5F5"/>
<path d="M173.017 40.4402H162.12V59.4235H173.017V40.4402Z" fill="#F5F5F5"/>
<path d="M194.633 40.4402H185.057V59.4235H194.633V40.4402Z" fill="#F5F5F5"/>
<path d="M161.75 79.4167H152.883V95.9434H161.75V79.4167Z" fill="#F5F5F5"/>
<path d="M161.753 40.1101V23.2735H162.12V40.1101H173.017V22.9001H152.883V40.1101H161.753Z" fill="#F5F5F5"/>
<path d="M173.017 79.4167H162.12V95.9434H173.017V79.4167Z" fill="#F5F5F5"/>
<path d="M194.633 79.4167H185.057V95.9434H194.633V79.4167Z" fill="#F5F5F5"/>
<path d="M184.69 40.4402H174.343V59.4235H184.69V40.4402Z" fill="#F5F5F5"/>
<path d="M184.69 79.4167H174.343V95.9434H184.69V79.4167Z" fill="#F5F5F5"/>
<path d="M184.69 60.7468H174.343V79.0868H184.69V60.7468Z" fill="#F5F5F5"/>
<path d="M134.88 29.5735H115.117V54.5235H134.88V29.5735Z" fill="#EBEBEB"/>
<path d="M126.493 53.9668H123.753V54.6335H126.493V53.9668Z" fill="#E0E0E0"/>
<path d="M125.633 38.1636L121.993 38.6969L120.633 42.1169L122.913 45.0036L126.557 44.4702L127.913 41.0502L125.633 38.1636Z" fill="#E0E0E0"/>
<path d="M127.333 40.3735L123.693 40.9069L122.333 44.3269L124.617 47.2135L128.257 46.6802L129.617 43.2602L127.333 40.3735Z" fill="#FAFAFA"/>
<path d="M126.88 29.2368H124.14V29.8068H126.88V29.2368Z" fill="#E0E0E0"/>
<path d="M21.7867 114.727V147.287H70.5934V114.463L21.7867 114.727Z" fill="#EBEBEB"/>
<path d="M68.75 116.747H23.6334V124.984H68.75V116.747Z" fill="#F5F5F5"/>
<path d="M68.75 126.917H23.6334V135.153H68.75V126.917Z" fill="#F5F5F5"/>
<path d="M68.75 137.083H23.6334V145.32H68.75V137.083Z" fill="#F5F5F5"/>
<path d="M37.62 116.747H23.6334V124.984H37.62V116.747Z" fill="#E0E0E0"/>
<path d="M37.62 126.917H23.6334V135.153H37.62V126.917Z" fill="#E0E0E0"/>
<path d="M37.5567 137.027H23.57V145.264H37.5567V137.027Z" fill="#E0E0E0"/>
<path d="M38.68 124.983L43.0867 118.14L47.9233 124.983H38.68Z" fill="#E0E0E0"/>
<path d="M43.0867 118.14L43.3 124.983H38.68L43.0867 118.14Z" fill="#EBEBEB"/>
<path d="M49.47 124.983L51.3467 122.387L53.5767 124.983H49.47Z" fill="#E0E0E0"/>
<path d="M51.3467 122.387L51.5234 124.983H49.47L51.3467 122.387Z" fill="#EBEBEB"/>
<path d="M31.97 133.513C31.9843 133.131 32.1435 132.769 32.4154 132.501C32.6872 132.232 33.0512 132.077 33.4333 132.067L45.36 131.793V135.07H33.47C33.2683 135.07 33.0687 135.029 32.8831 134.95C32.6976 134.871 32.5298 134.755 32.3898 134.61C32.2499 134.465 32.1406 134.293 32.0685 134.104C31.9963 133.916 31.9628 133.715 31.97 133.513Z" fill="#F5F5F5"/>
<path d="M33.18 132.71C33.0186 132.982 32.9335 133.292 32.9335 133.609C32.9335 133.925 33.0186 134.235 33.18 134.507H45.36V132.354L33.18 132.71Z" fill="#EBEBEB"/>
<path d="M34.96 130.6C34.9701 130.302 35.0939 130.019 35.3059 129.81C35.5179 129.6 35.802 129.48 36.1 129.473L45.3967 129.25V131.807H36.13C35.9732 131.807 35.818 131.775 35.6736 131.714C35.5292 131.653 35.3986 131.564 35.2894 131.451C35.1803 131.339 35.0949 131.205 35.0383 131.059C34.9817 130.913 34.9551 130.757 34.96 130.6Z" fill="#EBEBEB"/>
<path d="M35.9033 130C35.7771 130.212 35.7104 130.454 35.7104 130.7C35.7104 130.947 35.7771 131.188 35.9033 131.4H45.3967V129.733L35.9033 130Z" fill="#FAFAFA"/>
<path d="M45.4167 127.617L45.3867 135.13L46.9567 135.154V127.617H45.4167Z" fill="#FAFAFA"/>
<path d="M48.7433 128.66L48.7 135.134L51.13 135.154V128.66H48.7433Z" fill="#E0E0E0"/>
<path d="M46.99 128.66L46.9767 135.134L47.76 135.154V128.66H46.99Z" fill="#E0E0E0"/>
<path d="M51.1467 128.66L51.13 135.134L51.9167 135.154V128.66H51.1467Z" fill="#FAFAFA"/>
<path d="M47.6434 127.617L47.6234 135.13L48.6967 135.154V127.617H47.6434Z" fill="#EBEBEB"/>
<path d="M51.9667 127.617L51.95 135.13L53.02 135.154V127.617H51.9667Z" fill="#E0E0E0"/>
<path d="M62.5667 135.047H58.9L56.25 132.417L56.28 132.39L58.91 129.753H58.9267L61.6133 129.55L64.5767 131.883L62.5667 135.047ZM58.9467 134.963H62.52L64.48 131.9L61.5867 129.627L58.9467 129.823L56.3667 132.407L58.9467 134.963Z" fill="#E0E0E0"/>
<path d="M59.6767 135.03L57.6367 132.154L57.6467 132.13L58.9167 129.714L59.7 130.48H60.94L61.6033 129.507L63.11 131.887L63.1 131.91L61.5367 135.027L61.46 134.987L63.0167 131.894L61.6 129.66L60.9833 130.564H59.6633L59.6533 130.55L58.94 129.854L57.7333 132.147L59.7467 134.984L59.6767 135.03Z" fill="#E0E0E0"/>
<path d="M56.3133 132.45L56.3033 132.367L59.17 131.97L62.1833 131.85L64.5367 131.847V131.93L62.1833 131.933L59.1767 132.053L56.3133 132.45Z" fill="#E0E0E0"/>
<path d="M60.0534 135.02L59.1334 132.01L59.1367 131.997L59.6434 130.507L59.72 130.537L59.22 132.01L60.1334 134.993L60.0534 135.02Z" fill="#E0E0E0"/>
<path d="M60.8633 135.02L60.7833 134.997L61.6867 131.897L60.9267 130.543L61 130.5L61.7733 131.883L61.77 131.9L60.8633 135.02Z" fill="#E0E0E0"/>
<path d="M212.073 96.7435C209.917 97.0769 208.953 99.7435 209.143 101.91C209.333 104.077 210.223 106.207 209.987 108.377C209.683 111.13 207.6 113.46 207.36 116.22C207.073 119.474 209.36 122.36 210.06 125.554C210.393 127.107 210.35 128.75 210.927 130.22C211.42 131.481 212.335 132.531 213.516 133.192C214.697 133.854 216.07 134.085 217.403 133.847C218.735 133.61 219.944 132.917 220.823 131.888C221.702 130.859 222.197 129.557 222.223 128.203C222.273 125.703 220.73 123.35 220.917 120.87C221.057 119.027 222.137 117.284 221.917 115.45C221.643 113.267 219.62 111.72 218.917 109.64C218.213 107.56 218.89 105.267 218.643 103.08C218.2 99.1602 216.027 96.4135 212.097 96.7468" fill="#EBEBEB"/>
<path d="M201.07 115.723C200.703 119.357 202.31 123.63 204.18 126.767C206.073 129.924 208.921 132.397 212.313 133.827C212.693 133.987 213.163 134.12 213.483 133.86C213.598 133.736 213.684 133.588 213.735 133.426C213.787 133.265 213.802 133.095 213.78 132.927C213.807 129.107 212.47 125.35 210.29 122.21C208.213 119.21 206.253 117.44 201.07 115.723Z" fill="#F5F5F5"/>
<path d="M216.897 141.423C216.855 141.36 216.82 141.291 216.793 141.22C216.723 141.063 216.637 140.867 216.533 140.623C216.313 140.107 215.99 139.36 215.573 138.443C213.416 133.663 210.766 129.121 207.667 124.89C207.07 124.077 206.58 123.427 206.237 122.983L205.843 122.463C205.793 122.406 205.752 122.342 205.72 122.273C205.776 122.324 205.829 122.378 205.877 122.437L206.297 122.933C206.663 123.363 207.17 124 207.783 124.803C210.959 128.998 213.624 133.557 215.72 138.383C216.12 139.31 216.427 140.067 216.62 140.597C216.71 140.843 216.787 141.043 216.843 141.203C216.87 141.274 216.888 141.348 216.897 141.423Z" fill="#E0E0E0"/>
<path d="M214.557 106.793C214.578 106.903 214.592 107.015 214.597 107.127C214.613 107.373 214.64 107.707 214.67 108.127C214.727 109.017 214.807 110.27 214.907 111.793C215.103 114.903 215.377 119.197 215.71 123.937C216.043 128.677 216.377 132.967 216.613 136.073C216.733 137.613 216.827 138.863 216.897 139.74C216.923 140.16 216.947 140.497 216.963 140.74C216.972 140.857 216.972 140.974 216.963 141.09C216.939 140.98 216.922 140.869 216.913 140.757C216.887 140.51 216.85 140.177 216.807 139.757C216.723 138.867 216.603 137.62 216.473 136.09C216.193 132.987 215.843 128.697 215.51 123.953C215.177 119.21 214.923 114.917 214.763 111.807C214.693 110.267 214.633 109.01 214.593 108.12C214.593 107.7 214.567 107.367 214.557 107.12C214.55 107.011 214.55 106.902 214.557 106.793Z" fill="#E0E0E0"/>
<path d="M211.217 136.24H220.313V142.907C220.313 144.065 219.853 145.176 219.034 145.995C218.215 146.813 217.105 147.274 215.947 147.274C214.829 147.274 213.753 146.846 212.942 146.077C212.131 145.308 211.646 144.257 211.587 143.14L211.217 136.24Z" fill="#E0E0E0"/>
<path d="M234.723 147.287C234.723 147.337 185.593 147.374 125.007 147.374C64.42 147.374 15.2767 147.334 15.2767 147.287C15.2767 147.24 64.3967 147.2 125.007 147.2C185.617 147.2 234.723 147.24 234.723 147.287Z" fill="#263238"/>
<path d="M91.49 71.7702C91.8465 71.7922 92.2038 71.7424 92.5407 71.6237C92.8776 71.505 93.1872 71.3199 93.4512 71.0792C93.7151 70.8386 93.928 70.5474 94.0773 70.2229C94.2266 69.8984 94.3091 69.5472 94.32 69.1902C94.3567 67.7435 94.39 66.2835 94.39 66.2835C94.39 66.2835 96.5767 66.0502 96.7234 63.8835C96.87 61.7168 96.7234 56.7102 96.7234 56.7102C95.5152 56.1192 94.1712 55.8611 92.83 55.9624C91.4889 56.0638 90.199 56.521 89.0933 57.2868L88.76 57.5202L89.0167 69.1868C89.0356 69.8473 89.2991 70.4773 89.7561 70.9546C90.213 71.4319 90.8309 71.7225 91.49 71.7702Z" fill="#B78876"/>
<path d="M95.7267 60.5368C95.6822 60.4926 95.6519 60.4361 95.6396 60.3747C95.6272 60.3132 95.6334 60.2494 95.6573 60.1915C95.6812 60.1335 95.7218 60.084 95.7739 60.0491C95.826 60.0142 95.8873 59.9956 95.95 59.9956C96.0127 59.9956 96.074 60.0142 96.1261 60.0491C96.1782 60.084 96.2188 60.1335 96.2428 60.1915C96.2667 60.2494 96.2728 60.3132 96.2605 60.3747C96.2481 60.4361 96.2178 60.4926 96.1734 60.5368C96.114 60.5958 96.0337 60.6289 95.95 60.6289C95.8663 60.6289 95.786 60.5958 95.7267 60.5368Z" fill="#263238"/>
<path d="M96.57 60.16C96.5333 60.1967 96.3267 60.02 96.03 60.0067C95.7333 59.9934 95.5067 60.1334 95.4733 60.0934C95.44 60.0534 95.4967 60.01 95.5933 59.94C95.7261 59.8547 95.8825 59.8139 96.04 59.8234C96.1973 59.8331 96.3471 59.894 96.4667 59.9967C96.5567 60.0734 96.5867 60.1434 96.57 60.16Z" fill="#263238"/>
<path d="M92.89 60.16C92.9334 60.1785 92.972 60.2065 93.0031 60.242C93.0343 60.2774 93.0571 60.3193 93.0699 60.3646C93.0828 60.41 93.0854 60.4577 93.0775 60.5041C93.0696 60.5506 93.0514 60.5948 93.0242 60.6333C92.9971 60.6719 92.9617 60.7039 92.9206 60.727C92.8795 60.7501 92.8338 60.7638 92.7867 60.767C92.7397 60.7702 92.6925 60.7628 92.6487 60.7454C92.6049 60.7281 92.5655 60.7012 92.5334 60.6666C92.4728 60.6161 92.4332 60.5449 92.4224 60.4667C92.4116 60.3886 92.4303 60.3093 92.475 60.2442C92.5196 60.1792 92.5868 60.1332 92.6636 60.1151C92.7404 60.097 92.8211 60.1083 92.89 60.1466V60.16Z" fill="#263238"/>
<path d="M93.31 60.2667C93.2734 60.3034 93.07 60.1267 92.77 60.1134C92.47 60.1001 92.2467 60.2401 92.2167 60.2001C92.1867 60.1601 92.2367 60.1167 92.3367 60.0467C92.469 59.961 92.6255 59.9203 92.7828 59.9305C92.9401 59.9407 93.0899 60.0013 93.2101 60.1034C93.3001 60.1801 93.3334 60.2501 93.31 60.2667Z" fill="#263238"/>
<path d="M94.4 62.5735C94.5567 62.5203 94.7213 62.4943 94.8867 62.4968C94.9667 62.4968 95.0267 62.4768 95.0367 62.4335C95.0429 62.355 95.0267 62.2764 94.99 62.2068C94.9234 62.0068 94.8567 61.8035 94.7834 61.5901C94.5862 61.0645 94.441 60.5208 94.35 59.9668C94.6024 60.4682 94.8023 60.9943 94.9467 61.5368L95.14 62.1601C95.1864 62.265 95.1958 62.3825 95.1667 62.4935C95.1538 62.5227 95.1346 62.5486 95.1103 62.5694C95.0861 62.5901 95.0575 62.6052 95.0267 62.6135C94.9814 62.6196 94.9354 62.6196 94.89 62.6135C94.7256 62.6296 94.5597 62.616 94.4 62.5735Z" fill="#263238"/>
<path d="M93.41 62.8567L94.8567 63.3567C94.7467 63.5101 94.5877 63.6215 94.4059 63.6724C94.2241 63.7233 94.0304 63.7107 93.8567 63.6367C93.2267 63.3667 93.41 62.8567 93.41 62.8567Z" fill="white"/>
<path d="M94.3933 66.25C93.3904 66.2189 92.4193 65.8906 91.6033 65.3066C91.6033 65.3066 92.1967 66.9033 94.37 66.8133L94.3933 66.25Z" fill="#A36957"/>
<path d="M96.2467 56.1401C94.4572 55.5122 92.5251 55.4116 90.6801 55.8501C90.6801 55.8501 88.8367 56.5167 88.7534 57.5167C88.7133 58.3325 88.7311 59.1501 88.8067 59.9634L88.9634 61.6301H89.6301L89.6967 59.3701C89.6967 59.3701 90.9634 58.4734 90.9734 57.1001C91.5934 57.0101 94.6401 56.6134 96.7334 57.2967V56.8134C96.7294 56.6652 96.6808 56.5217 96.594 56.4016C96.5072 56.2815 96.3862 56.1903 96.2467 56.1401Z" fill="#263238"/>
<path d="M89.0534 60.14C89.0534 60.0516 89.0182 59.9668 88.9557 59.9043C88.8932 59.8418 88.8084 59.8066 88.72 59.8066C88.3167 59.8066 87.6567 59.9666 87.6067 61.0866C87.5367 62.6833 89.0667 62.2666 89.0734 62.22C89.08 62.1733 89.0667 60.76 89.0534 60.14Z" fill="#B78876"/>
<path d="M88.73 61.6067C88.73 61.6067 88.7 61.6267 88.6534 61.6467C88.587 61.6731 88.5131 61.6731 88.4467 61.6467C88.3464 61.577 88.2665 61.482 88.2149 61.3713C88.1634 61.2606 88.1421 61.1383 88.1534 61.0167C88.1561 60.879 88.1891 60.7436 88.25 60.62C88.2665 60.5709 88.2949 60.5265 88.3327 60.4911C88.3705 60.4556 88.4166 60.43 88.4667 60.4167C88.4989 60.4088 88.533 60.4129 88.5624 60.4282C88.5918 60.4436 88.6147 60.4691 88.6267 60.5C88.6467 60.5467 88.6267 60.5767 88.6434 60.58C88.66 60.5834 88.68 60.5534 88.67 60.4867C88.6617 60.4476 88.6406 60.4125 88.61 60.3867C88.5686 60.3508 88.5147 60.3328 88.46 60.3367C88.3937 60.3475 88.3311 60.3748 88.278 60.4162C88.225 60.4575 88.1833 60.5116 88.1567 60.5734C88.0834 60.7085 88.0445 60.8596 88.0434 61.0134C88.0293 61.1548 88.0572 61.2973 88.1236 61.4229C88.19 61.5486 88.2919 61.652 88.4167 61.72C88.4588 61.7355 88.504 61.7408 88.5486 61.7356C88.5932 61.7304 88.6359 61.7148 88.6734 61.69C88.7267 61.6467 88.7367 61.61 88.73 61.6067Z" fill="#A36957"/>
<path d="M120.667 61.9202C120.233 61.7702 119.333 64.1035 119.247 63.4902C119.16 62.8768 120.663 60.7602 120.203 60.6202C119.603 60.4368 118.72 62.9002 118.63 63.1002C118.54 63.3002 118.243 63.1802 118.333 63.0035C118.463 62.7435 119.777 60.0035 119.19 59.8268C118.857 59.7235 118.733 60.3268 118.733 60.3268C118.733 60.3268 117.693 62.9735 117.42 62.8769C117.147 62.7802 117.7 61.2102 117.927 60.6868C118.153 60.1635 117.997 59.8602 117.687 59.9502C117.477 60.0102 116.75 61.5802 116.537 62.0968C116.323 62.6135 115.773 64.0402 115.473 63.1135C115.173 62.1868 114.593 61.5902 114.323 61.5368C114.26 61.5307 114.197 61.5445 114.142 61.5762C114.087 61.6079 114.044 61.656 114.018 61.7138C113.992 61.7715 113.984 61.8359 113.997 61.8981C114.009 61.9602 114.04 62.0169 114.087 62.0602C114.284 62.323 114.444 62.6126 114.56 62.9202C114.664 63.1635 114.726 63.4227 114.743 63.6868C114.787 64.2164 114.778 64.749 114.717 65.2769L109.367 74.9069L100.78 71.6669L99.6 76.5735C99.6 76.5735 110.88 81.5435 111.583 81.1602C113.177 80.2935 118.183 66.2802 118.183 66.2802C118.926 65.3296 119.616 64.3392 120.25 63.3135C120.953 62.0435 120.843 61.9768 120.667 61.9202Z" fill="#B78876"/>
<path d="M106.097 73.3533C103.71 72.1633 102.02 71.46 100.713 70.6433C96.6567 68.1067 95.6034 68.6933 94.6534 68.5867C93.86 68.84 92.69 69.32 92.2434 69.4067C91.7967 69.4933 90.16 68.9633 89.1034 68.65C86.6534 68.7867 85.1667 69.8467 82.9234 71.54L78.3667 75.1533L83.76 80.6667L85.4267 79.4C85.5267 81.8967 85.6167 81.92 85.7434 84.48L85.85 94.34L101.093 95.0067L100.133 85.1567L99.6667 77.4067L104.037 79.52L106.107 73.3533" fill="#5150A8"/>
<path d="M88.8934 68.9434L88.8734 67.3601C88.8734 67.3601 91.5967 67.6134 92.1733 69.4968L88.8934 68.9434Z" fill="#5150A8"/>
<path d="M94.6667 68.8268L94.4233 67.2935C93.8612 67.3723 93.3388 67.6286 92.9323 68.0248C92.5259 68.4211 92.2565 68.9368 92.1633 69.4968L94.6667 68.8268Z" fill="#5150A8"/>
<path d="M94.9467 74.4301C95.1192 74.3981 95.2945 74.3836 95.47 74.3867C95.8033 74.3867 96.3267 74.3467 96.9467 74.3301H97.02V74.4034C97.02 75.0067 97.0433 75.6967 97.06 76.4401V76.4834L97.0233 76.5101L96.8767 76.6134L96.1 77.1601L96.0533 77.1934L96.0067 77.1634L94.9333 76.4967L94.8967 76.4734V76.4334C94.8967 75.8167 94.8967 75.3101 94.9167 74.9634C94.9127 74.7884 94.9227 74.6134 94.9467 74.4401C94.9739 74.6257 94.9917 74.8126 95 75.0001C95 75.3501 95.04 75.8401 95.0533 76.4234L95.02 76.3601L96.1033 77.0267H96L96.7767 76.4767L96.92 76.3734L96.8833 76.4434C96.8833 75.7034 96.8833 75.0101 96.8833 74.4101L96.9567 74.4801C96.37 74.4801 95.88 74.4801 95.53 74.4601C95.3352 74.4604 95.1404 74.4504 94.9467 74.4301Z" fill="#263238"/>
<path d="M96.9034 74.9035C96.577 74.9866 96.239 75.0147 95.9034 74.9868C95.5675 75.0152 95.2293 74.9859 94.9034 74.9001C95.229 74.8127 95.5675 74.7833 95.9034 74.8135C96.2394 74.7836 96.5781 74.8141 96.9034 74.9035Z" fill="#263238"/>
<path d="M92.23 72.4535C92.1356 71.9673 92.0998 71.4715 92.1234 70.9768C92.0874 70.4825 92.1109 69.9856 92.1934 69.4968C92.2839 69.9835 92.3186 70.4789 92.2967 70.9735C92.3305 71.4678 92.3081 71.9643 92.23 72.4535Z" fill="#263238"/>
<path d="M92.7734 69.8901C92.7734 69.8701 92.8434 69.8301 92.93 69.8901C92.9558 69.9133 92.9756 69.9424 92.9878 69.9749C92.9999 70.0074 93.0042 70.0423 93 70.0767C92.9906 70.1208 92.9682 70.161 92.9358 70.1923C92.9034 70.2236 92.8624 70.2445 92.818 70.2523C92.7737 70.2602 92.728 70.2547 92.6868 70.2365C92.6456 70.2183 92.6107 70.1882 92.5867 70.1501C92.5691 70.1203 92.5598 70.0863 92.5598 70.0517C92.5598 70.0172 92.5691 69.9832 92.5867 69.9534C92.6434 69.8534 92.73 69.8634 92.73 69.8834C92.73 69.9034 92.7034 69.9401 92.7 69.9934C92.6967 70.0467 92.7234 70.0901 92.7867 70.0801C92.85 70.0701 92.8567 70.0301 92.8367 69.9701C92.8167 69.9101 92.7734 69.9134 92.7734 69.8901Z" fill="#263238"/>
<path d="M92.98 71.0702C92.98 71.0468 93.0667 71.0468 93.12 71.1468C93.1352 71.1768 93.1432 71.2099 93.1432 71.2435C93.1432 71.2771 93.1352 71.3102 93.12 71.3402C93.0983 71.3786 93.0665 71.4103 93.028 71.4318C92.9894 71.4534 92.9457 71.4638 92.9016 71.4621C92.8575 71.4604 92.8147 71.4465 92.778 71.4221C92.7413 71.3976 92.712 71.3635 92.6933 71.3235C92.6812 71.2921 92.6763 71.2584 92.6792 71.2249C92.6821 71.1914 92.6926 71.159 92.71 71.1302C92.7734 71.0335 92.8567 71.0435 92.8567 71.0635C92.8567 71.0835 92.83 71.1202 92.8234 71.1768C92.8167 71.2335 92.8234 71.2835 92.9067 71.2902C92.99 71.2968 93 71.2468 93 71.1835C93 71.1202 92.9734 71.0935 92.98 71.0702Z" fill="#263238"/>
<path d="M91.5267 68.6667C91.5267 68.6667 91.4667 68.6667 91.3834 68.6834C91.3236 68.7061 91.2704 68.7432 91.2285 68.7915C91.1867 68.8398 91.1574 68.8977 91.1434 68.96C91.0964 69.1633 91.0619 69.3692 91.04 69.5767C91 69.8234 90.9567 70.08 90.9134 70.3467L90.89 70.4867L90.78 70.41L90.58 70.27C90.1477 69.9596 89.7398 69.6163 89.36 69.2434C89.1932 69.0981 89.0493 68.9284 88.9333 68.74C88.97 68.7034 89.6767 69.4067 90.68 70.1267L90.8767 70.2667L90.7434 70.3267L90.8867 69.5467C90.9191 69.334 90.9693 69.1244 91.0367 68.92C91.0604 68.8452 91.104 68.7781 91.1626 68.7259C91.2213 68.6737 91.2929 68.6383 91.37 68.6234C91.4834 68.6 91.5334 68.6667 91.5267 68.6667Z" fill="#263238"/>
<path d="M94.7667 68.6434C94.5178 69.3201 94.107 69.9255 93.57 70.4067L93.5267 70.4434L93.4034 70.5634L93.3834 70.3934C93.2634 69.7239 93.0264 69.0807 92.6833 68.4934C92.8434 68.6234 92.974 68.7859 93.0667 68.9701C93.3225 69.3987 93.4881 69.8751 93.5534 70.3701L93.41 70.3201L93.4467 70.2801C93.9313 69.772 94.3728 69.2246 94.7667 68.6434Z" fill="#263238"/>
<path opacity="0.3" d="M99.6567 77.4067L101.087 77.4801L104.307 78.5834L104.027 79.5201L99.6567 77.4067Z" fill="black"/>
<g opacity="0.3">
<path opacity="0.3" d="M100.147 82.6366C97.1036 82.9338 94.0415 82.9862 90.99 82.7933C89.9418 82.781 88.9051 82.573 87.9333 82.18C86.7606 81.6172 85.8557 80.6165 85.4133 79.3933L85.6867 83.64L100.147 82.6366Z" fill="black"/>
</g>
<g opacity="0.7">
<path opacity="0.7" d="M85.9567 72.9667C85.9167 72.9934 85.67 72.71 85.4033 72.33C85.217 72.1169 85.0773 71.8671 84.9933 71.5967C85.0333 71.57 85.28 71.8534 85.5467 72.23C85.7328 72.4446 85.8724 72.6954 85.9567 72.9667Z" fill="white"/>
</g>
<g opacity="0.7">
<path opacity="0.7" d="M82.8234 76.6202C82.8788 76.2708 82.9914 75.9329 83.1567 75.6202C83.2754 75.2854 83.4464 74.9715 83.6634 74.6902C83.6055 75.039 83.493 75.3764 83.33 75.6902C83.2121 76.0253 83.041 76.3394 82.8234 76.6202Z" fill="white"/>
</g>
<g opacity="0.7">
<path opacity="0.7" d="M86.8267 77.9401C86.5555 77.7601 86.3176 77.5346 86.1234 77.2734C85.8888 77.0445 85.6949 76.7774 85.55 76.4834C86.0602 76.8904 86.4927 77.3861 86.8267 77.9467V77.9401Z" fill="white"/>
</g>
<g opacity="0.7">
<path opacity="0.7" d="M88.97 74.14C89 74.1767 88.75 74.44 88.41 74.73C88.07 75.02 87.7667 75.2234 87.7433 75.1867C87.72 75.15 87.9667 74.8867 88.3067 74.5967C88.6467 74.3067 88.94 74.1033 88.97 74.14Z" fill="white"/>
</g>
<g opacity="0.7">
<path opacity="0.7" d="M89.6667 72.4534C89.6334 72.4867 89.3767 72.2734 89.14 71.9434C88.9033 71.6134 88.78 71.3034 88.8067 71.2767C88.8333 71.2501 89.0367 71.5167 89.2667 71.8334C89.4967 72.1501 89.7034 72.4201 89.6667 72.4534Z" fill="white"/>
</g>
<g opacity="0.7">
<path opacity="0.7" d="M90.2567 79.9468C90.0106 80.19 89.7351 80.4016 89.4367 80.5768C89.1708 80.7985 88.8786 80.9866 88.5667 81.1368C88.7714 80.852 89.0338 80.6135 89.3367 80.4368C89.6064 80.2119 89.9196 80.0451 90.2567 79.9468Z" fill="white"/>
</g>
<g opacity="0.7">
<path opacity="0.7" d="M90.98 77.81C90.9467 77.8434 90.6467 77.6267 90.3134 77.3234C89.98 77.0201 89.7467 76.7467 89.78 76.7134C89.8134 76.6801 90.1134 76.8934 90.4467 77.1967C90.78 77.5001 91 77.7734 90.98 77.81Z" fill="white"/>
</g>
<g opacity="0.7">
<path opacity="0.7" d="M92.7734 75.3833C92.8121 74.8245 93.0268 74.2924 93.3867 73.8633C93.3385 74.1344 93.2485 74.3964 93.12 74.64C93.0421 74.9036 92.9253 75.1541 92.7734 75.3833Z" fill="white"/>
</g>
<g opacity="0.7">
<path opacity="0.7" d="M93.5733 81.6101C93.5467 81.6467 93.2233 81.4401 92.9067 81.0834C92.6993 80.8864 92.5524 80.6343 92.4833 80.3568C92.5267 80.3334 92.7433 80.6301 93.0367 80.9701C93.33 81.3101 93.6067 81.5734 93.5733 81.6101Z" fill="white"/>
</g>
<g opacity="0.7">
<path opacity="0.7" d="M94.81 78.6367C94.7767 78.6734 94.4767 78.4234 94.1134 78.0801C93.75 77.7367 93.5034 77.4334 93.5367 77.3967C93.8024 77.5374 94.0389 77.7274 94.2334 77.9567C94.5834 78.2967 94.8434 78.6034 94.81 78.6367Z" fill="white"/>
</g>
<g opacity="0.7">
<path opacity="0.7" d="M98.0201 80.9102C97.7969 81.1466 97.5475 81.3569 97.2767 81.5368C97.0409 81.7612 96.7829 81.9611 96.5067 82.1335C96.6656 81.8391 96.8946 81.5884 97.1734 81.4035C97.4122 81.1739 97.7025 81.0047 98.0201 80.9102Z" fill="white"/>
</g>
<g opacity="0.7">
<path opacity="0.7" d="M97.9267 78.3035C97.9567 78.3435 97.6333 78.6368 97.2067 78.9701C96.9637 79.1931 96.684 79.3724 96.38 79.5001C96.5796 79.2379 96.8232 79.0123 97.1 78.8335C97.3441 78.612 97.6235 78.4329 97.9267 78.3035Z" fill="white"/>
</g>
<g opacity="0.7">
<path opacity="0.7" d="M98.5234 76.1567C98.3854 75.884 98.3146 75.5823 98.3167 75.2767C98.2645 74.9758 98.2874 74.6667 98.3833 74.3767C98.4588 74.6661 98.4946 74.9644 98.49 75.2634C98.5421 75.5582 98.5533 75.8588 98.5234 76.1567Z" fill="white"/>
</g>
<g opacity="0.7">
<path opacity="0.7" d="M96.3334 75.4267C96.3767 75.45 96.2767 75.7134 96.1134 76.0167C95.95 76.32 95.78 76.5467 95.74 76.5234C95.7 76.5 95.7967 76.2367 95.96 75.9334C96.1234 75.63 96.2867 75.4034 96.3334 75.4267Z" fill="white"/>
</g>
<g opacity="0.7">
<path opacity="0.7" d="M96.4734 72.0833C95.866 71.8151 95.3107 71.4415 94.8334 70.98C95.1477 71.089 95.4409 71.2513 95.7 71.46C95.9912 71.6226 96.2527 71.8333 96.4734 72.0833Z" fill="white"/>
</g>
<g opacity="0.7">
<path opacity="0.7" d="M98.6667 70.8634C98.3361 70.8451 98.0163 70.7393 97.74 70.5567C97.4376 70.422 97.1756 70.2105 96.98 69.9434C97.2741 70.0717 97.5563 70.2256 97.8234 70.4034C98.1173 70.5319 98.3995 70.6858 98.6667 70.8634Z" fill="white"/>
</g>
<g opacity="0.7">
<path opacity="0.7" d="M100.393 72.1867C100.163 72.3144 99.9194 72.4162 99.6667 72.4901C99.4332 72.6134 99.1859 72.7085 98.93 72.7734C98.9034 72.7368 99.1834 72.4934 99.5967 72.3267C99.8408 72.197 100.12 72.148 100.393 72.1867Z" fill="white"/>
</g>
<g opacity="0.7">
<path opacity="0.7" d="M101.53 75.7001C101.544 75.3234 101.638 74.954 101.807 74.6167C101.924 74.2587 102.113 73.9286 102.363 73.6467C102.267 74.0046 102.135 74.3519 101.97 74.6834C101.856 75.0356 101.709 75.3761 101.53 75.7001Z" fill="white"/>
</g>
<g opacity="0.7">
<path opacity="0.7" d="M103.88 77.1166C103.76 76.8291 103.695 76.5215 103.69 76.21C103.628 75.9058 103.622 75.5928 103.673 75.2866C103.794 75.5729 103.858 75.8795 103.863 76.19C103.925 76.4953 103.931 76.8093 103.88 77.1166Z" fill="white"/>
</g>
<g opacity="0.7">
<path opacity="0.7" d="M80.6434 74.1367C80.6704 74.4021 80.6409 74.6702 80.5567 74.9234C80.5267 75.188 80.4391 75.4429 80.3 75.6701C80.2729 75.4057 80.3025 75.1387 80.3867 74.8867C80.4171 74.6211 80.5046 74.3652 80.6434 74.1367Z" fill="white"/>
</g>
<g opacity="0.7">
<path opacity="0.7" d="M84.1367 79.1168C83.5579 79.1366 82.9887 78.9656 82.5167 78.6301C82.7984 78.6616 83.0744 78.7323 83.3367 78.8401C83.6148 78.8952 83.884 78.9883 84.1367 79.1168Z" fill="white"/>
</g>
<g opacity="0.7">
<path opacity="0.7" d="M88.1401 69.7335C88.1567 69.7802 87.8934 69.9102 87.5834 70.0935C87.2734 70.2768 87.0267 70.4268 86.9934 70.4035C86.96 70.3802 87.1667 70.1335 87.4934 69.9435C87.82 69.7535 88.1267 69.6902 88.1401 69.7335Z" fill="white"/>
</g>
<g opacity="0.7">
<path opacity="0.7" d="M83.97 73.0601C83.7249 73.0897 83.4762 73.0623 83.2433 72.9801C82.8534 72.8901 82.5434 72.7801 82.5567 72.7335C82.8018 72.7039 83.0505 72.7313 83.2834 72.8135C83.6667 72.9035 84 73.0001 83.97 73.0601Z" fill="white"/>
</g>
<g opacity="0.7">
<path opacity="0.7" d="M90.2434 69.0467C90.2267 69.09 89.97 69.02 89.7234 68.82C89.4767 68.62 89.3567 68.38 89.3901 68.3567C89.4234 68.3333 89.6 68.5 89.83 68.69C90.06 68.88 90.2634 69 90.2434 69.0467Z" fill="white"/>
</g>
<g opacity="0.7">
<path opacity="0.7" d="M94.2567 68.1201C94.29 68.1534 94.1634 68.3367 93.9734 68.5267C93.7834 68.7167 93.6001 68.8401 93.5667 68.8067C93.5334 68.7734 93.66 68.5934 93.85 68.4034C94.04 68.2134 94.2234 68.0867 94.2567 68.1201Z" fill="white"/>
</g>
<path d="M72.9534 138.383L70.8467 139.603C70.8467 139.603 72.3967 144.667 71.4467 143.767C70.5967 142.963 67.42 136.877 66.67 135.373L66.5034 135.04L70.09 133.09L72.9534 138.383Z" fill="#5150A8"/>
<g opacity="0.5">
<path opacity="0.5" d="M67.64 136.927C68.0402 136.594 68.3037 136.125 68.38 135.61C68.4553 135.101 68.3363 134.582 68.0467 134.157L66.5834 135L67.64 136.927Z" fill="white"/>
</g>
<path opacity="0.5" d="M71.5267 142.123C71.5267 142.123 71.97 143.953 71.6 143.903C71.23 143.853 67.79 137.827 66.5034 135.037L66.6267 134.977L70.58 142.043C70.58 142.043 71.3334 141.823 71.5267 142.123Z" fill="white"/>
<path d="M66.5834 134.893C66.5948 134.926 66.6093 134.957 66.6267 134.987L66.7567 135.257L67.2634 136.257C67.6967 137.087 68.31 138.22 69.0167 139.457C69.7234 140.693 70.3834 141.79 70.8767 142.6L71.4634 143.537L71.6267 143.787L71.6867 143.873C71.6756 143.84 71.6599 143.809 71.64 143.78L71.4867 143.52L70.92 142.57C70.44 141.77 69.7867 140.66 69.08 139.423C68.3734 138.187 67.7467 137.053 67.31 136.233L66.7834 135.26C66.73 135.163 66.6834 135.077 66.6367 134.997C66.59 134.917 66.5867 134.89 66.5834 134.893Z" fill="#263238"/>
<path d="M70.4967 142.087C70.68 142.04 70.8677 142.013 71.0567 142.007C71.245 142.024 71.4307 142.063 71.61 142.123C71.457 141.993 71.2607 141.925 71.06 141.933C70.8598 141.914 70.6594 141.968 70.4967 142.087Z" fill="#263238"/>
<path d="M70.3967 140.08C70.5915 140.138 70.7975 140.147 70.9967 140.107C70.9031 140.067 70.8014 140.05 70.7 140.057C70.5984 140.041 70.4946 140.049 70.3967 140.08Z" fill="#263238"/>
<path d="M70.38 139.523C70.38 139.543 70.4767 139.593 70.61 139.637C70.7433 139.68 70.8567 139.703 70.8633 139.683C70.87 139.663 70.7667 139.613 70.6333 139.567C70.5 139.52 70.3867 139.503 70.38 139.523Z" fill="#263238"/>
<path d="M70.7234 138.967C70.7417 139.074 70.7839 139.175 70.8467 139.263C70.9301 139.417 71.0167 139.533 71.0334 139.523C71.015 139.417 70.9729 139.315 70.9101 139.227C70.8267 139.073 70.7434 138.96 70.7234 138.967Z" fill="#263238"/>
<path d="M71.0234 138.667C71.0143 138.793 71.0445 138.919 71.11 139.027C71.1967 139.213 71.3167 139.333 71.3334 139.32C71.2919 139.204 71.2394 139.093 71.1767 138.987C71.1343 138.876 71.083 138.769 71.0234 138.667Z" fill="#263238"/>
<path d="M70.96 140C71.007 140.121 71.0734 140.234 71.1567 140.333C71.2425 140.447 71.3384 140.553 71.4433 140.65C71.5043 140.711 71.5726 140.763 71.6467 140.807C71.6693 140.821 71.6946 140.83 71.7209 140.834C71.7473 140.838 71.7742 140.837 71.8 140.83C71.8279 140.822 71.8526 140.805 71.871 140.782C71.8894 140.76 71.9006 140.732 71.9034 140.703C71.8932 140.538 71.8259 140.38 71.7128 140.259C71.5997 140.137 71.4479 140.059 71.2833 140.037C71.1863 140.023 71.0875 140.029 70.9933 140.057C70.9586 140.065 70.9258 140.08 70.8967 140.1C71.0223 140.077 71.151 140.077 71.2767 140.1C71.4093 140.125 71.5319 140.187 71.63 140.28C71.7502 140.388 71.8232 140.539 71.8333 140.7C71.8333 140.777 71.7467 140.793 71.6767 140.753C71.6098 140.71 71.5463 140.662 71.4867 140.61C71.3823 140.518 71.2854 140.417 71.1967 140.31C71.0467 140.12 70.97 140 70.96 140Z" fill="#263238"/>
<path d="M71 140.093C71.0955 140.093 71.1878 140.059 71.26 139.997C71.3434 139.937 71.41 139.856 71.4534 139.763C71.4849 139.705 71.5014 139.64 71.5014 139.573C71.5014 139.507 71.4849 139.442 71.4534 139.383C71.4242 139.355 71.3854 139.34 71.3451 139.34C71.3047 139.34 71.2659 139.355 71.2367 139.383C71.1867 139.422 71.1457 139.471 71.1167 139.527C71.0676 139.615 71.0295 139.709 71.0034 139.807C70.9712 139.893 70.962 139.986 70.9767 140.077C70.9767 140.077 71 139.977 71.0534 139.82C71.0847 139.73 71.1261 139.644 71.1767 139.563C71.22 139.477 71.3301 139.37 71.3967 139.447C71.417 139.496 71.426 139.549 71.4231 139.602C71.4202 139.655 71.4055 139.707 71.3801 139.753C71.341 139.838 71.2841 139.913 71.2134 139.973C71.1462 140.02 71.0748 140.06 71 140.093Z" fill="#263238"/>
<path d="M68.09 134.177C68.09 134.177 68.19 134.32 68.2967 134.573C68.4381 134.904 68.4854 135.268 68.4334 135.623C68.373 135.979 68.2175 136.312 67.9834 136.587C67.8034 136.793 67.65 136.89 67.65 136.9C67.6888 136.886 67.7249 136.866 67.7567 136.84C67.8494 136.777 67.9344 136.703 68.01 136.62C68.2639 136.347 68.4319 136.005 68.4934 135.637C68.5485 135.268 68.4928 134.891 68.3334 134.553C68.2854 134.452 68.2273 134.356 68.16 134.267C68.1234 134.203 68.0934 134.173 68.09 134.177Z" fill="#263238"/>
<path d="M68.5333 137.297C68.62 137.582 68.7421 137.855 68.8967 138.11C69.0299 138.378 69.1993 138.625 69.4 138.847C69.4167 138.847 69.2 138.514 68.96 138.077C68.72 137.64 68.5533 137.287 68.5333 137.297Z" fill="#263238"/>
<path d="M67.9434 136.26C67.9234 136.26 67.8867 136.33 67.8267 136.41C67.7667 136.49 67.71 136.55 67.72 136.567C67.73 136.583 67.82 136.547 67.8867 136.453C67.9534 136.36 67.9634 136.263 67.9434 136.26Z" fill="#263238"/>
<path d="M68.2067 135.594C68.1867 135.594 68.1533 135.654 68.1267 135.74C68.1 135.827 68.1 135.9 68.1267 135.907C68.1533 135.914 68.18 135.847 68.2067 135.76C68.2333 135.674 68.2267 135.6 68.2067 135.594Z" fill="#263238"/>
<path d="M68.11 134.91C68.0933 134.91 68.1367 134.993 68.1533 135.087C68.17 135.18 68.1533 135.26 68.18 135.267C68.2067 135.273 68.2467 135.187 68.2233 135.073C68.2 134.96 68.1233 134.893 68.11 134.91Z" fill="#263238"/>
<path d="M68 134.453C67.98 134.453 67.97 134.5 67.9767 134.553C67.9833 134.607 68.0067 134.65 68.0267 134.647C68.0467 134.643 68.0567 134.597 68.05 134.543C68.0434 134.49 68 134.45 68 134.453Z" fill="#263238"/>
<path d="M107.503 143.073L107.427 145.51C107.427 145.51 112.547 146.867 111.28 147.197C110.147 147.497 103.303 146.973 101.633 146.817L101.257 146.78L101.497 142.707L107.503 143.073Z" fill="#5150A8"/>
<g opacity="0.5">
<path opacity="0.5" d="M103.46 146.813C103.393 146.294 103.133 145.818 102.733 145.48C102.343 145.15 101.844 144.979 101.333 145L101.27 146.697L103.46 146.813Z" fill="white"/>
</g>
<path opacity="0.5" d="M109.927 146.263C109.927 146.263 111.713 146.853 111.477 147.14C111.24 147.427 104.307 147.163 101.257 146.78V146.643L109.343 147.023C109.343 147.023 109.57 146.263 109.927 146.263Z" fill="white"/>
<path d="M101.177 146.637H101.28L101.58 146.663L102.68 146.753C103.613 146.823 104.9 146.903 106.323 146.96C107.747 147.017 109.04 147.037 109.973 147.04H111.077H111.38C111.414 147.045 111.449 147.045 111.483 147.04C111.449 147.035 111.414 147.035 111.38 147.04H111.077L109.973 147.02C109.04 147.003 107.75 146.973 106.327 146.92C104.903 146.867 103.617 146.793 102.683 146.737L101.58 146.67H101.28C101.247 146.654 101.212 146.643 101.177 146.637Z" fill="#263238"/>
<path d="M109.353 147.117C109.41 146.937 109.486 146.764 109.58 146.6C109.695 146.449 109.827 146.312 109.973 146.19C109.782 146.253 109.62 146.384 109.517 146.557C109.395 146.717 109.337 146.916 109.353 147.117Z" fill="#263238"/>
<path d="M107.597 146.14C107.597 146.14 107.703 146.05 107.797 145.913C107.89 145.777 107.953 145.657 107.937 145.647C107.92 145.637 107.83 145.737 107.737 145.873C107.643 146.01 107.58 146.127 107.597 146.14Z" fill="#263238"/>
<path d="M107.113 145.86C107.113 145.877 107.227 145.817 107.333 145.727C107.44 145.637 107.52 145.55 107.507 145.533C107.493 145.517 107.393 145.58 107.287 145.67C107.18 145.76 107.1 145.847 107.113 145.86Z" fill="#263238"/>
<path d="M106.823 145.277C107.031 145.333 107.248 145.343 107.46 145.307C107.36 145.266 107.252 145.248 107.143 145.253C107.036 145.238 106.927 145.246 106.823 145.277Z" fill="#263238"/>
<path d="M106.733 144.867C106.836 144.94 106.958 144.98 107.083 144.983C107.206 145.007 107.333 144.995 107.45 144.95C107.332 144.924 107.211 144.911 107.09 144.91C106.973 144.885 106.853 144.871 106.733 144.867Z" fill="#263238"/>
<path d="M107.823 145.617C107.952 145.641 108.085 145.641 108.213 145.617C108.354 145.604 108.494 145.579 108.63 145.54C108.714 145.521 108.796 145.492 108.873 145.453C108.921 145.427 108.956 145.385 108.973 145.333C108.981 145.305 108.98 145.275 108.971 145.247C108.961 145.219 108.944 145.194 108.92 145.177C108.826 145.127 108.722 145.099 108.615 145.094C108.508 145.089 108.402 145.108 108.304 145.149C108.205 145.19 108.117 145.252 108.046 145.331C107.974 145.411 107.921 145.505 107.89 145.607C107.883 145.642 107.883 145.678 107.89 145.713C107.933 145.592 107.998 145.479 108.08 145.38C108.169 145.281 108.285 145.211 108.413 145.177C108.49 145.154 108.571 145.146 108.65 145.155C108.73 145.163 108.807 145.188 108.877 145.227C108.937 145.273 108.91 145.347 108.84 145.383C108.769 145.421 108.694 145.45 108.617 145.47C108.483 145.509 108.347 145.539 108.21 145.56C107.97 145.61 107.823 145.607 107.823 145.617Z" fill="#263238"/>
<path d="M107.923 145.64C107.973 145.56 107.992 145.464 107.977 145.37C107.968 145.269 107.936 145.171 107.883 145.083C107.851 145.022 107.804 144.97 107.745 144.932C107.687 144.895 107.619 144.873 107.55 144.87C107.511 144.878 107.476 144.901 107.452 144.934C107.429 144.966 107.418 145.007 107.423 145.047C107.431 145.109 107.451 145.169 107.483 145.223C107.531 145.312 107.59 145.394 107.66 145.467C107.718 145.539 107.792 145.596 107.877 145.633C107.877 145.633 107.8 145.56 107.7 145.433C107.64 145.359 107.587 145.279 107.543 145.193C107.493 145.107 107.463 144.957 107.56 144.943C107.657 144.93 107.757 145.04 107.813 145.12C107.864 145.198 107.898 145.285 107.913 145.377C107.924 145.464 107.928 145.552 107.923 145.64Z" fill="#263238"/>
<path d="M101.363 144.98C101.363 144.98 101.537 144.98 101.81 145.013C102.166 145.069 102.501 145.221 102.777 145.453C103.045 145.692 103.244 145.998 103.353 146.34C103.437 146.607 103.44 146.78 103.453 146.78C103.459 146.739 103.459 146.698 103.453 146.657C103.448 146.544 103.43 146.432 103.4 146.323C103.304 145.963 103.102 145.639 102.82 145.393C102.537 145.153 102.189 145.001 101.82 144.957C101.709 144.945 101.597 144.945 101.487 144.957C101.407 144.963 101.363 144.973 101.363 144.98Z" fill="#263238"/>
<path d="M104.247 146.253C104.535 146.329 104.832 146.369 105.13 146.373C105.428 146.401 105.729 146.389 106.023 146.337C106.023 146.317 105.623 146.337 105.133 146.3C104.643 146.263 104.25 146.23 104.247 146.253Z" fill="#263238"/>
<path d="M103.057 146.203C103.057 146.22 103.087 146.29 103.123 146.383C103.16 146.477 103.18 146.557 103.2 146.557C103.22 146.557 103.237 146.46 103.2 146.353C103.163 146.247 103.07 146.19 103.057 146.203Z" fill="#263238"/>
<path d="M102.63 145.63C102.613 145.63 102.65 145.707 102.713 145.773C102.777 145.84 102.833 145.883 102.85 145.867C102.867 145.85 102.827 145.79 102.767 145.723C102.707 145.657 102.643 145.617 102.63 145.63Z" fill="#263238"/>
<path d="M102 145.35C102 145.37 102.087 145.373 102.173 145.407C102.26 145.44 102.323 145.493 102.34 145.48C102.357 145.467 102.31 145.38 102.2 145.337C102.09 145.293 102 145.333 102 145.35Z" fill="#263238"/>
<path d="M101.547 145.21C101.547 145.23 101.57 145.263 101.62 145.283C101.67 145.303 101.717 145.307 101.723 145.283C101.73 145.26 101.7 145.23 101.65 145.21C101.6 145.19 101.553 145.193 101.547 145.21Z" fill="#263238"/>
<path d="M89.59 100.157C89.59 100.157 89.15 111.773 87.37 117.797C85.59 123.82 80.81 125.283 77.7033 127.223C74.75 129.073 68.1467 132.58 68.1467 132.58L71.8733 139.037C71.8733 139.037 90.0967 131.323 93.3467 124.42C95.84 119.117 98.57 109.353 98.57 109.353L89.59 100.157Z" fill="#263238"/>
<path d="M99.8233 94.9602C99.8233 94.9602 107.51 111.06 109.563 115.43C109.778 115.887 109.878 116.389 109.853 116.894L108.497 144.03L100.7 143.637L101.543 117.467L88.3333 100.897C87.1949 99.4913 86.3851 97.849 85.9633 96.0902C85.823 95.515 85.7491 94.9255 85.7433 94.3335L99.8333 94.9602" fill="#263238"/>
<path d="M132.167 131.734L62.18 136.854L58.7734 85.5235L128.233 80.6602L132.167 131.734Z" fill="white"/>
<path d="M132.167 131.733C132.167 131.733 132.137 131.417 132.087 130.803C132.037 130.19 131.967 129.28 131.87 128.097C131.683 125.723 131.41 122.24 131.06 117.79C130.363 108.897 129.37 96.1234 128.163 80.6668L128.237 80.7301L58.78 85.6101L58.86 85.5168C58.86 85.6368 58.86 85.7634 58.8867 85.8934C60.0967 104.167 61.2434 121.497 62.26 136.85L62.1767 136.777L112.677 133.11L127.037 132.08L130.85 131.81L131.83 131.743L132.163 131.723C132.163 131.723 132.057 131.723 131.83 131.753L130.857 131.83L127.063 132.117L112.73 133.187L62.1867 136.933H62.11V136.853C61.09 121.5 59.9367 104.187 58.72 85.8968C58.72 85.7701 58.72 85.6401 58.6934 85.5234V85.4368H58.78L128.237 80.5901H128.307V80.6601C129.483 96.1534 130.457 108.93 131.133 117.837C131.467 122.28 131.73 125.757 131.907 128.127C131.993 129.31 132.063 130.213 132.107 130.823C132.15 131.433 132.167 131.733 132.167 131.733Z" fill="#263238"/>
<path d="M115.31 88.4302C115.453 88.4302 116.067 97.2468 116.677 108.14C117.287 119.034 117.677 127.873 117.523 127.883C117.37 127.893 116.77 119.067 116.157 108.17C115.543 97.2735 115.167 88.4368 115.31 88.4302Z" fill="#263238"/>
<path d="M109.093 88.3335C109.24 88.3335 109.85 97.1535 110.463 108.047C111.077 118.94 111.463 127.78 111.31 127.787C111.157 127.793 110.553 118.97 109.943 108.073C109.333 97.1768 108.95 88.3335 109.093 88.3335Z" fill="#263238"/>
<path d="M90.0667 88.6001C90.21 88.6001 90.8233 97.4168 91.4367 108.31C92.05 119.203 92.4367 128.047 92.2834 128.053C92.13 128.06 91.5267 119.237 90.9167 108.34C90.3067 97.4434 89.9233 88.6068 90.0667 88.6001Z" fill="#263238"/>
<path d="M96.08 88.3335C96.2234 88.3335 96.8367 97.1535 97.4467 108.047C98.0567 118.94 98.4467 127.78 98.2934 127.79C98.14 127.8 97.54 118.974 96.9267 108.077C96.3134 97.1802 95.9367 88.3535 96.08 88.3335Z" fill="#263238"/>
<path d="M102.09 88.0901C102.233 88.0901 102.847 96.9068 103.457 107.8C104.067 118.693 104.457 127.537 104.307 127.543C104.157 127.55 103.55 118.727 102.937 107.83C102.323 96.9334 101.947 88.0968 102.09 88.0901Z" fill="#263238"/>
<path d="M83.3834 89.4834C83.5267 89.4834 84.1401 98.3001 84.7501 109.193C85.3601 120.087 85.7501 128.927 85.5967 128.937C85.4434 128.947 84.8434 120.12 84.2301 109.223C83.6167 98.3267 83.2401 89.4901 83.3834 89.4834Z" fill="#263238"/>
<path d="M76.7933 89.8767C76.9367 89.8767 77.55 98.6934 78.16 109.587C78.77 120.48 79.1534 129.333 79 129.333C78.8467 129.333 78.2434 120.517 77.63 109.62C77.0167 98.7234 76.6667 89.8834 76.7933 89.8767Z" fill="#263238"/>
<path d="M70.2034 90.27C70.3501 90.27 70.9601 99.09 71.5734 109.983C72.1867 120.877 72.5734 129.717 72.4201 129.727C72.2667 129.737 71.6667 120.91 71.0534 110C70.4401 99.09 70.0601 90.28 70.2034 90.27Z" fill="#263238"/>
<path d="M78.8334 75.6301C78.8334 75.6301 71.0667 81.3335 72.5367 85.8868C74.3034 91.3535 86.7234 95.7301 86.7234 95.7301C87.6967 96.5401 88.7634 97.3968 89.39 97.8035C90.7234 98.6601 90.77 98.5301 90.8067 98.3401C90.9 97.8368 88.4967 96.7368 89.0834 96.6335C89.67 96.5301 91.94 98.3668 92.02 97.8301C92.1234 97.1301 89.5967 96.0335 89.3867 95.9235C89.1767 95.8135 89.26 95.4668 89.4467 95.5901C89.7134 95.7501 92.56 97.3535 92.6667 96.6701C92.7267 96.2935 92.12 96.1235 92.12 96.1235C92.12 96.1235 89.3934 94.8401 89.4534 94.5201C89.5133 94.2001 91.12 94.8901 91.6634 95.1668C92.2067 95.4435 92.4834 95.2701 92.3567 94.9068C92.27 94.6601 90.6367 93.7668 90.1034 93.5068C89.57 93.2468 88.1034 92.5601 88.97 92.2301C89.8367 91.9001 90.35 91.2301 90.37 90.9235C90.39 90.6168 90.0167 90.4001 89.8234 90.6335C89.5958 90.8561 89.3306 91.0367 89.04 91.1668C88.8428 91.2689 88.6278 91.3322 88.4067 91.3535C87.25 90.6435 78.98 85.5235 78.9467 84.6135C78.91 83.6335 83.1134 80.0135 83.1134 80.0135L78.8334 75.6301Z" fill="#B78876"/>
<path d="M93.2 59.1001C93.2 59.1501 92.98 59.1401 92.7367 59.1767C92.4933 59.2134 92.29 59.2734 92.2667 59.2301C92.2433 59.1867 92.43 59.0434 92.71 59.0034C92.99 58.9634 93.2134 59.0567 93.2 59.1001Z" fill="#263238"/>
<path d="M96.2367 58.9466C96.2033 58.9866 96.0467 58.9033 95.84 58.87C95.6333 58.8366 95.46 58.85 95.4433 58.8033C95.4267 58.7566 95.6167 58.6499 95.8733 58.6966C96.13 58.7433 96.27 58.9133 96.2367 58.9466Z" fill="#263238"/>
<path d="M135.667 57.9436C133.08 70.7803 123.667 119.044 121.163 131.924C120.999 132.768 121.176 133.644 121.654 134.359C122.132 135.075 122.873 135.572 123.717 135.744L176.553 146.45C176.975 146.536 177.41 146.537 177.833 146.453C178.255 146.369 178.657 146.203 179.015 145.964C179.373 145.724 179.68 145.416 179.918 145.057C180.156 144.699 180.321 144.296 180.403 143.874L187.637 106.557L192.147 107.254C192.679 107.336 193.221 107.207 193.661 106.896C194.1 106.585 194.401 106.116 194.5 105.587L200 75.4503C200.049 75.1826 200.045 74.9078 199.988 74.6417C199.93 74.3757 199.821 74.1235 199.666 73.8996C199.512 73.6758 199.314 73.4847 199.085 73.3372C198.857 73.1897 198.601 73.0888 198.333 73.0403L194.283 72.2803L194.813 69.3669C194.966 68.5268 194.781 67.6604 194.298 66.9559C193.816 66.2513 193.075 65.7654 192.237 65.6036L139.45 55.4003C138.612 55.2421 137.745 55.4203 137.037 55.8962C136.329 56.3722 135.837 57.1076 135.667 57.9436Z" fill="#263238"/>
<path d="M139.597 59.1836L122.15 133.014L176.357 145.437L193.44 72.1269L139.597 59.1836Z" fill="#E0E0E0"/>
<path d="M133.293 56.4402L120.87 131.277L175.797 140.014L187.89 65.7202L133.293 56.4402Z" fill="#EBEBEB"/>
<path d="M125.237 60.3569L122.92 136.184L178.517 137.51L180.583 62.2636L125.237 60.3569Z" fill="white"/>
<path d="M125.24 60.3569L180.573 62.1936H180.667V62.2636C180.09 83.4036 179.38 109.414 178.613 137.507V137.594H178.527H178.12L122.927 136.26H122.847V136.18C124.267 91.3336 125.223 61.0536 125.247 60.3569C125.217 61.0536 124.333 91.3336 123 136.187L122.923 136.107L178.117 137.414H178.523L178.433 137.497C179.213 109.404 179.933 83.3936 180.517 62.2503L180.587 62.3236L125.24 60.3569Z" fill="#263238"/>
<path d="M172.787 76.5768C172.787 76.7235 163.22 76.7068 151.427 76.5468C139.633 76.3868 130.07 76.1401 130.07 75.9968C130.07 75.8535 139.637 75.8668 151.433 76.0268C163.23 76.1868 172.79 76.4335 172.787 76.5768Z" fill="#263238"/>
<path d="M173.187 83.2869C173.187 83.4302 163.623 83.4169 151.827 83.2569C140.03 83.0969 130.47 82.8469 130.473 82.7036C130.477 82.5602 140.037 82.5736 151.833 82.7336C163.63 82.8936 173.19 83.1436 173.187 83.2869Z" fill="#263238"/>
<path d="M173.76 103.85C173.76 103.993 164.193 103.98 152.4 103.82C140.607 103.66 131.04 103.414 131.043 103.267C131.047 103.12 140.607 103.137 152.407 103.3C164.207 103.464 173.76 103.707 173.76 103.85Z" fill="#263238"/>
<path d="M173.76 97.3336C173.76 97.4769 164.193 97.4636 152.4 97.3002C140.607 97.1369 131.04 96.8935 131.043 96.7502C131.047 96.6069 140.607 96.6202 152.407 96.7802C164.207 96.9402 173.76 97.2036 173.76 97.3336Z" fill="#263238"/>
<path d="M173.76 90.8402C173.76 90.9836 164.193 90.9702 152.4 90.8102C140.607 90.6502 131.04 90.4036 131.043 90.2602C131.047 90.1169 140.607 90.1302 152.407 90.2902C164.207 90.4502 173.76 90.6969 173.76 90.8402Z" fill="#263238"/>
<path d="M173.113 111.11C173.113 111.254 163.547 111.24 151.753 111.08C139.96 110.92 130.397 110.674 130.397 110.53C130.397 110.387 139.963 110.4 151.76 110.56C163.557 110.72 173.117 110.967 173.113 111.11Z" fill="#263238"/>
<path d="M173 118.247C173 118.39 163.433 118.377 151.64 118.217C139.847 118.057 130.28 117.807 130.283 117.664C130.287 117.52 139.847 117.534 151.647 117.694C163.447 117.854 173 118.104 173 118.247Z" fill="#263238"/>
<path d="M172.867 125.38C172.867 125.524 163.3 125.51 151.503 125.35C139.707 125.19 130.147 124.944 130.15 124.8C130.153 124.657 139.713 124.67 151.513 124.83C163.313 124.99 172.867 125.237 172.867 125.38Z" fill="#263238"/>
<path d="M179.89 78.1135C187.357 78.1135 193.41 72.0545 193.41 64.5802C193.41 57.106 187.357 51.0469 179.89 51.0469C172.423 51.0469 166.37 57.106 166.37 64.5802C166.37 72.0545 172.423 78.1135 179.89 78.1135Z" fill="#5150A8"/>
<path opacity="0.5" d="M179.903 78.1135C187.378 78.1135 193.437 72.0545 193.437 64.5802C193.437 57.106 187.378 51.0469 179.903 51.0469C172.429 51.0469 166.37 57.106 166.37 64.5802C166.37 72.0545 172.429 78.1135 179.903 78.1135Z" fill="black"/>
<path d="M178.403 78.1135C185.87 78.1135 191.923 72.0545 191.923 64.5802C191.923 57.106 185.87 51.0469 178.403 51.0469C170.936 51.0469 164.883 57.106 164.883 64.5802C164.883 72.0545 170.936 78.1135 178.403 78.1135Z" fill="#5150A8"/>
<path d="M178.503 56.6069H178.31C177.927 56.6069 177.617 56.9173 177.617 57.3003V71.8636C177.617 72.2465 177.927 72.5569 178.31 72.5569H178.503C178.886 72.5569 179.197 72.2465 179.197 71.8636V57.3003C179.197 56.9173 178.886 56.6069 178.503 56.6069Z" fill="#FAFAFA"/>
<path d="M170.437 64.4902V64.6769C170.437 65.0616 170.749 65.3735 171.133 65.3735H185.68C186.065 65.3735 186.377 65.0616 186.377 64.6769V64.4902C186.377 64.1055 186.065 63.7935 185.68 63.7935H171.133C170.749 63.7935 170.437 64.1055 170.437 64.4902Z" fill="#FAFAFA"/>
</svg>
