<svg width="32" height="32" viewBox="0 0 32 32" fill="none" xmlns="http://www.w3.org/2000/svg">
<path d="M25.9907 13C25.9904 12.7401 25.8982 12.4841 25.7071 12.2929L17.7071 4.29294C17.5159 4.10112 17.2599 4.00806 17 4.00806V4H11C8.24319 4 6 6.24319 6 9V23C6 25.7568 8.24319 28 11 28H21C23.7568 28 26 25.7568 26 23V13H25.9907ZM18 7.41406L22.5859 12H21C19.3457 12 18 10.6543 18 9V7.41406ZM21 26H11C9.34569 26 8 24.6543 8 23V9C8 7.34569 9.34569 6 11 6H16V9C16 11.7568 18.2432 14 21 14H24V23C24 24.6543 22.6543 26 21 26ZM21 22C21 22.5527 20.5522 23 20 23H12C11.4478 23 11 22.5527 11 22C11 21.4473 11.4478 21 12 21H20C20.5522 21 21 21.4473 21 22ZM21 18C21 18.5527 20.5522 19 20 19H12C11.4478 19 11 18.5527 11 18C11 17.4473 11.4478 17 12 17H20C20.5522 17 21 17.4473 21 18ZM11 14C11 13.4473 11.4478 13 12 13H14C14.5522 13 15 13.4473 15 14C15 14.5527 14.5522 15 14 15H12C11.4478 15 11 14.5527 11 14Z" fill="#06B58C"/>
</svg>
